<?xml version="1.0" standalone="no"?>
<!DOCTYPE svg PUBLIC "-//W3C//DTD SVG 20010904//EN"
 "http://www.w3.org/TR/2001/REC-SVG-20010904/DTD/svg10.dtd">
<svg version="1.0" xmlns="http://www.w3.org/2000/svg"
 width="150.000000pt" height="150.000000pt" viewBox="0 0 458.000000 96.000000"
 preserveAspectRatio="xMidYMid meet">

<g transform="translate(0.000000,96.000000) scale(0.100000,-0.100000)"
fill="#fff" stroke="none">
<path d="M0 480 l0 -480 2290 0 2290 0 0 480 0 480 -2290 0 -2290 0 0 -480z
m4550 0 l0 -450 -2260 0 -2260 0 0 450 0 450 2260 0 2260 0 0 -450z"/>
<path d="M100 480 l0 -390 945 0 945 0 0 390 0 390 -945 0 -945 0 0 -390z
m1610 255 c0 -20 5 -25 25 -25 20 0 25 5 25 25 0 20 5 25 25 25 20 0 25 -5 25
-25 0 -20 -5 -25 -24 -25 -19 0 -25 -6 -28 -27 -2 -20 -9 -29 -25 -31 -20 -3
-23 1 -23 27 0 28 -3 31 -30 31 -27 0 -30 -3 -30 -31 0 -26 -3 -30 -22 -27
-17 2 -24 11 -26 31 -3 23 0 27 22 27 21 0 26 5 26 25 0 21 5 25 30 25 25 0
30 -4 30 -25z m-1170 -160 l0 -25 -105 0 -105 0 0 -80 0 -80 105 0 105 0 0
-25 0 -25 -105 0 -105 0 0 25 c0 20 -5 25 -25 25 -25 0 -25 1 -25 80 0 79 0
80 25 80 20 0 25 5 25 25 l0 25 105 0 105 0 0 -25z m290 0 c0 -21 5 -25 30
-25 l30 0 0 -105 0 -105 -30 0 c-25 0 -30 4 -30 25 0 24 -2 25 -75 25 -73 0
-75 -1 -75 -25 0 -21 -5 -25 -30 -25 l-30 0 0 105 0 105 30 0 c25 0 30 4 30
25 0 24 2 25 75 25 73 0 75 -1 75 -25z m290 0 c0 -20 -5 -25 -25 -25 -25 0
-25 -1 -25 -80 0 -79 0 -80 25 -80 20 0 25 -5 25 -25 0 -24 -2 -25 -75 -25
-73 0 -75 1 -75 25 0 20 5 25 25 25 25 0 25 1 25 80 0 79 0 80 -25 80 -20 0
-25 5 -25 25 0 24 2 25 75 25 73 0 75 -1 75 -25z m140 0 c0 -20 5 -25 25 -25
20 0 25 -5 25 -25 0 -20 5 -25 25 -25 21 0 25 -5 25 -30 0 -25 4 -30 25 -30
25 0 25 1 25 80 l0 80 30 0 30 0 0 -130 0 -130 -30 0 c-25 0 -30 4 -30 25 0
20 -5 25 -25 25 -20 0 -25 5 -25 25 0 20 -5 25 -25 25 -21 0 -25 5 -25 30 0
25 -4 30 -25 30 -25 0 -25 -1 -25 -80 l0 -80 -30 0 -30 0 0 130 0 130 30 0
c25 0 30 -4 30 -25z m500 0 c0 -20 5 -25 25 -25 l25 0 0 -105 0 -105 -25 0
c-20 0 -25 5 -25 25 0 25 -1 25 -80 25 -79 0 -80 0 -80 -25 0 -20 -5 -25 -25
-25 l-25 0 0 105 0 105 25 0 c20 0 25 5 25 25 0 25 1 25 80 25 79 0 80 0 80
-25z"/>
<path d="M680 495 l0 -55 75 0 75 0 0 55 0 55 -75 0 -75 0 0 -55z"/>
<path d="M1602 498 l3 -53 75 0 75 0 3 53 3 52 -81 0 -81 0 3 -52z"/>
<path d="M2337 643 l-188 -208 99 -3 100 -3 -39 -152 c-21 -83 -39 -155 -39
-160 0 -17 25 9 207 216 l185 212 -106 3 c-58 1 -106 4 -106 5 0 1 20 67 45
147 25 80 45 146 45 147 0 16 -43 -27 -203 -204z"/>
<path d="M2780 605 c0 -20 -5 -25 -25 -25 l-25 0 0 -105 0 -105 25 0 c20 0 25
5 25 25 0 25 1 25 80 25 79 0 80 0 80 -25 0 -20 5 -25 25 -25 l25 0 0 105 0
105 -25 0 c-20 0 -25 5 -25 25 0 25 -1 25 -80 25 -79 0 -80 0 -80 -25z m160
-80 l0 -56 -77 3 -78 3 -3 53 -3 52 80 0 81 0 0 -55z"/>
<path d="M3070 500 l0 -130 30 0 30 0 0 80 c0 79 0 80 25 80 21 0 25 -5 25
-30 0 -25 4 -30 25 -30 20 0 25 -5 25 -25 0 -20 5 -25 25 -25 20 0 25 -5 25
-25 0 -21 5 -25 30 -25 l30 0 0 130 0 130 -30 0 -30 0 0 -80 c0 -79 0 -80 -25
-80 -21 0 -25 5 -25 30 0 25 -4 30 -25 30 -20 0 -25 5 -25 25 0 20 -5 25 -25
25 -20 0 -25 5 -25 25 0 21 -5 25 -30 25 l-30 0 0 -130z"/>
<path d="M3420 605 c0 -23 3 -25 50 -25 l50 0 0 -105 0 -105 25 0 25 0 0 105
0 105 55 0 c52 0 55 1 55 25 l0 25 -130 0 -130 0 0 -25z"/>
<path d="M3810 605 c0 -20 -5 -25 -25 -25 -25 0 -25 -1 -25 -80 0 -79 0 -80
25 -80 20 0 25 -5 25 -25 0 -25 1 -25 80 -25 79 0 80 0 80 25 0 20 5 25 25 25
25 0 25 1 25 80 0 79 0 80 -25 80 -20 0 -25 5 -25 25 0 25 -1 25 -80 25 -79 0
-80 0 -80 -25z m160 -105 l0 -80 -80 0 -80 0 0 80 0 80 80 0 80 0 0 -80z"/>
<path d="M4160 605 c0 -21 -5 -25 -30 -25 -25 0 -30 -4 -30 -25 0 -21 5 -25
30 -25 27 0 30 -3 30 -30 l0 -30 75 0 c73 0 75 -1 75 -25 l0 -25 -105 0 -105
0 0 -25 0 -25 105 0 c105 0 105 0 105 24 0 19 6 25 28 28 19 2 28 9 30 26 3
19 -1 22 -27 22 -28 0 -31 3 -31 30 l0 30 -75 0 c-73 0 -75 1 -75 25 l0 25
105 0 105 0 0 25 0 25 -105 0 -105 0 0 -25z"/>
</g>
</svg>
