<svg width="100px" height="100px" viewBox="0 0 138 130" fill="none" xmlns="http://www.w3.org/2000/svg"> 
                <path d="M101.501 57.7129C81.627 57.7129 65.5541 73.7858 65.5541 93.6596C65.5541 113.533 81.627 129.691 101.501 129.691C121.375 129.691 137.448 113.533 137.448 93.6596C137.448 73.7858 121.375 57.7129 101.501 57.7129ZM78.822 71.7522H82.9314C82.9314 71.8504 82.8893 72.0748 82.9314 72.0888C84.8809 73.0705 86.3816 74.8237 88.808 74.9499C92.8052 75.1463 95.8066 77.3202 98.808 79.5642C103.745 83.2529 106.704 88.2599 108.976 93.7578C109.551 95.1603 110.253 96.5909 111.08 97.8672C111.571 98.6246 112.342 99.3679 113.184 99.7185C117.069 101.317 120.421 103.604 123.436 106.942C120.954 107.46 118.738 107.923 116.213 108.456C116.704 108.989 116.943 109.34 117.307 109.634C119.495 111.416 121.725 113.253 123.941 115.006C124.208 115.216 124.628 115.287 124.951 115.427V115.679C122.988 114.669 120.982 113.772 119.074 112.65C117.644 111.822 116.171 110.855 115.049 109.705C113.352 107.993 113.605 107.446 115.975 106.928C117.588 106.577 119.271 106.409 121.01 106.17C120.926 105.932 120.884 105.665 120.758 105.581C118.205 103.828 115.793 101.808 112.609 101.135C110.842 100.756 109.902 99.6204 109.159 98.1056C107.307 94.3048 105.596 90.4479 103.366 86.8574C100.463 82.187 96.1852 78.849 90.8556 76.8574C90.6172 76.7732 90.3367 76.5909 90.0983 76.6049C86.9286 76.8854 84.6425 74.9219 82.0338 73.7438C81.6551 73.5755 81.2483 73.323 80.8556 73.323C80.3648 73.323 79.6915 73.4352 79.4251 73.7438C79.1726 74.0383 79.2427 74.6835 79.4251 75.0902C79.7336 75.7774 80.3087 76.3525 80.6873 77.0257C81.7392 78.877 82.6929 80.7003 83.7168 82.5656C84.7547 84.4731 85.8767 86.4086 86.8304 88.3581C87.0828 88.863 87.1109 89.6905 86.9146 90.2094C85.8627 92.8882 85.5681 95.539 86.073 98.3581C86.3535 99.9009 86.8024 101.331 88.3451 102.552C89.3129 100.209 88.6677 97.6007 90.9538 96.086C92.6369 99.0874 94.362 102.103 96.073 105.16C95.9608 105.259 95.7645 105.329 95.6523 105.413C94.0955 103.491 92.6088 101.598 90.9538 99.5362C90.7995 100.42 90.7294 101.247 90.4489 101.977C90.1684 102.678 89.7757 103.618 89.1866 103.828C88.6116 104.024 87.5176 103.632 86.9987 103.155C85.2035 101.472 84.6144 99.1575 84.6425 96.8574C84.6705 94.8097 85.0352 92.734 85.484 90.7284C85.7084 89.7045 85.6523 89.0734 85.0632 88.1197C83.8991 86.2122 83.0857 84.0944 82.1179 82.0748C81.599 80.9808 81.1922 79.8027 80.4349 78.877C78.6957 76.7311 76.9566 74.6414 78.822 71.7522ZM87.8122 79.4661C88.289 79.6905 88.9061 79.7746 89.1586 80.1393C89.4531 80.5741 89.397 81.2473 89.4952 81.8223C89.3269 81.8363 89.1726 81.8924 88.9903 81.9065C88.5134 81.2192 88.0366 80.4899 87.5597 79.8027C87.6298 79.6905 87.742 79.5923 87.8122 79.4661Z" fill="#fff">
                </path> 
                <path d="M62.8612 0.0127396C26.9566 0.433497 -1.2202 10.4335 0.0420758 22.355C1.30435 34.2905 31.4867 43.6874 67.4054 43.2666C103.324 42.8459 131.403 32.8599 130.14 20.9244C128.878 8.98891 98.7799 -0.393993 62.8612 0.0127396ZM0.0420758 24.2905V47.895C-0.0140253 48.3999 -0.0140253 48.9749 0.0420758 49.4939C1.30435 61.4294 31.4867 70.7421 67.4054 70.3214C67.4896 70.3214 67.5737 70.3214 67.6579 70.3214C73.0436 63.1124 80.8276 57.5023 90.3367 54.7814C101.851 51.4995 113.675 53.0984 123.422 58.3157C127.405 55.6369 129.818 52.6355 130.14 49.4939H130.225V25.8052C129.032 37.0535 101.767 46.226 67.4054 46.6327C31.5007 47.0535 1.3885 37.7407 0.126227 25.8052C0.0701262 25.3003 0.0701262 24.7954 0.126227 24.2905H0.0420758ZM0.0420758 51.9202V75.6089C-0.0140253 76.1138 -0.0140253 76.6047 0.0420758 77.1236C1.20617 88.1755 27.223 96.9553 59.5933 97.867C58.9482 89.536 60.9678 81.3733 65.0492 74.3466C30.1964 74.3326 1.34642 65.104 0.126227 53.435C0.0701262 52.93 0.0701262 52.4251 0.126227 51.9202H0.0420758ZM130.225 53.5191C129.986 55.8193 128.612 58.0072 126.368 60.0689C127.686 60.9104 129.004 61.766 130.225 62.7618V53.5191ZM0.0420758 79.6341V103.239C-0.0140253 103.744 -0.0140253 104.234 0.0420758 104.753C1.30435 116.689 31.4867 126.086 67.4054 125.665C69.4952 125.637 71.5849 125.581 73.6186 125.497C67.9524 120.546 63.5064 114.108 61.1922 106.521C60.7294 105.006 60.3787 103.505 60.0982 101.99C27.5035 101.163 1.30435 92.2709 0.126227 81.1629C0.0701262 80.658 0.0701262 80.1531 0.126227 79.6482H0.0420758V79.6341Z" fill="#fff">
                </path> 
              </svg>